<svg width="200" height="200" viewBox="0 0 200 200" fill="none" xmlns="http://www.w3.org/2000/svg">
  <!-- Pen -->
  <path d="M40 160 L100 40 L120 50 L60 170 Z" fill="#333" stroke="#000" stroke-width="2"/>
  <path d="M40 160 L30 180 L45 175 Z" fill="#000"/>
  
  <!-- Hand -->
  <g transform="translate(50, 60) rotate(10)">
    <!-- Fingers -->
    <path d="M30 40 C30 20 50 10 70 30 C80 40 70 60 50 60" fill="#f4d1ae" stroke="#c4a18e" stroke-width="2"/>
    <path d="M40 50 C40 30 60 20 80 40 C90 50 80 70 60 70" fill="#f4d1ae" stroke="#c4a18e" stroke-width="2"/>
    <path d="M50 60 C50 40 70 30 90 50 C100 60 90 80 70 80" fill="#f4d1ae" stroke="#c4a18e" stroke-width="2"/>
    
    <!-- Thumb/Palm -->
    <path d="M10 80 Q 30 100 60 100 L 80 120 Q 40 140 10 100 Z" fill="#f4d1ae" stroke="#c4a18e" stroke-width="2"/>
    
    <!-- Knuckles -->
    <path d="M10 80 Q 20 50 40 50" fill="#f4d1ae" stroke="#c4a18e" stroke-width="2"/>
  </g>
</svg>
